<svg id="Layer_1" data-name="Layer 1" xmlns="http://www.w3.org/2000/svg" viewBox="0 0 1057.5 1461">
  <g>
    <rect x="7.5" y="7.5" width="985" height="1446" rx="92.04" ry="92.04" style="fill: #231f20;"/>
    <path d="M900.47,15c46.61,0,84.53,37.92,84.53,84.54v1261.93c0,46.61-37.92,84.54-84.53,84.54H99.54c-46.61,0-84.54-37.92-84.54-84.54V99.54C15,52.92,52.92,15,99.54,15h800.93M900.47,0H99.54C44.56,0,0,44.56,0,99.54v1261.93c0,54.97,44.56,99.54,99.54,99.54h800.93c54.97,0,99.53-44.56,99.53-99.54V99.54c0-54.97-44.56-99.54-99.53-99.54h0Z" style="fill: #eee;"/>
  </g>
  <g>
    <path d="M340.9,1216.94c-96,0-177.97-31.22-237.04-90.3-37.88-37.88-64.29-85.02-78.48-140.11-13.78-53.46-15.56-112.14-5.28-174.39,10.31-62.48,32.23-125.38,65.16-186.95,34.14-63.84,78.67-123.43,132.34-177.1,64.26-64.26,139.3-116.83,217.03-152.05,75.07-34.01,152.69-51.98,224.48-51.98,96,0,177.97,31.22,237.04,90.3,37.88,37.88,64.29,85.02,78.48,140.11,13.78,53.46,15.56,112.14,5.28,174.39-10.31,62.48-32.23,125.38-65.16,186.95-34.14,63.84-78.67,123.43-132.34,177.1-64.26,64.26-139.31,116.83-217.04,152.05-75.07,34.01-152.69,51.98-224.48,51.98Z" style="fill: red;"/>
    <path d="M659.13,251.56c93.95,0,174.08,30.46,231.71,88.1,36.92,36.92,62.67,82.9,76.53,136.68,13.52,52.45,15.25,110.08,5.15,171.3-10.18,61.67-31.83,123.79-64.37,184.63-33.79,63.19-77.88,122.19-131.03,175.34-32.38,32.38-67.39,61.75-104.07,87.29-35.57,24.77-72.84,46.05-110.76,63.23-74.1,33.57-150.65,51.31-221.38,51.31-93.97,0-174.1-30.46-231.74-88.1C-43.64,968.54,7.38,668.9,222.89,453.39c32.38-32.38,67.39-61.75,104.07-87.29,35.57-24.77,72.84-46.04,110.76-63.23,74.1-33.57,150.65-51.31,221.41-51.32h0M659.1,236.56c-145.67,0-312.25,71.66-446.81,206.22C-9.43,664.5-60.35,973.05,98.55,1131.95c62.46,62.46,148.01,92.49,242.35,92.49,145.67,0,312.25-71.66,446.81-206.22,221.71-221.71,272.63-530.26,113.73-689.16-62.46-62.46-148.01-92.5-242.35-92.49h0Z" style="fill: #eee;"/>
  </g>
  <g>
    <path d="M92.25,914.37l32.62-32.62,163.57,163.57c14.57,14.57,31.18,21.94,49.82,22.1,18.64.17,35.58-7.36,50.8-22.59,16.09-16.09,24.19-33.32,24.3-51.7.11-18.37-7.67-35.39-23.32-51.04l-162.75-162.75,32.62-32.62,166.17,166.17c24.14,24.14,35.44,50.5,33.92,79.09-1.52,28.59-15.28,55.88-41.26,81.86-26.74,26.74-53.98,40.72-81.7,41.91-27.72,1.2-53.98-10.6-78.77-35.39l-166.01-166.01Z" style="fill: #fbb03b; stroke: #f7931e; stroke-width: 12px;"/>
    <path d="M705.42,785.54l-298.1-51.21,171.39,171.39-30.98,30.98-238.91-238.91,13.05-13.05,285.38,45.01-165.2-165.2,30.98-30.98,242.17,242.17-9.78,9.78Z" style="fill: #fbb03b; stroke: #f7931e; stroke-width: 12px;"/>
    <path d="M627.96,613.49c-34.57-34.57-54.82-72.16-60.75-112.77-5.92-40.6,5.84-75.64,35.31-105.1,33.16-33.16,69.28-47.86,108.36-44.11,39.08,3.75,77.76,24.76,116.03,63.03,39.25,39.25,61.13,78.85,65.64,118.8,4.51,39.96-9.76,76.46-42.81,109.51-30.12,30.12-65.42,41.94-105.92,35.47-40.5-6.47-79.12-28.07-115.87-64.82ZM662.2,579.24c27.4,27.4,55.69,44.88,84.88,52.43,29.19,7.56,53.62,1.5,73.3-18.18,22.29-22.29,30.85-47.7,25.68-76.24-5.17-28.54-22.97-58.03-53.41-88.47-61.53-61.53-115.13-69.47-160.79-23.81-20.22,20.22-27.34,43.87-21.36,70.94,5.98,27.07,23.21,54.85,51.7,83.33Z" style="fill: #fbb03b; stroke: #f7931e; stroke-width: 12px;"/>
  </g>
</svg>